<?xml version="1.0" encoding="UTF-8" standalone="no"?>
<svg
   xmlns:dc="http://purl.org/dc/elements/1.1/"
   xmlns:cc="http://creativecommons.org/ns#"
   xmlns:rdf="http://www.w3.org/1999/02/22-rdf-syntax-ns#"
   xmlns:svg="http://www.w3.org/2000/svg"
   xmlns="http://www.w3.org/2000/svg"
   xmlns:sodipodi="http://sodipodi.sourceforge.net/DTD/sodipodi-0.dtd"
   xmlns:inkscape="http://www.inkscape.org/namespaces/inkscape"
   inkscape:version="1.0 (4035a4f, 2020-05-01)"
   sodipodi:docname="bi-star-filled.svg"
   id="svg12"
   version="1.1"
   fill="none"
   viewBox="0 0 20 20"
   height="20"
   width="20">
  <metadata
     id="metadata18">
    <rdf:RDF>
      <cc:Work
         rdf:about="">
        <dc:format>image/svg+xml</dc:format>
        <dc:type
           rdf:resource="http://purl.org/dc/dcmitype/StillImage" />
      </cc:Work>
    </rdf:RDF>
  </metadata>
  <defs
     id="defs16" />
  <sodipodi:namedview
     inkscape:current-layer="svg12"
     inkscape:window-maximized="0"
     inkscape:window-y="25"
     inkscape:window-x="0"
     inkscape:cy="10.815019"
     inkscape:cx="13.015012"
     inkscape:zoom="6.4307594"
     showgrid="false"
     id="namedview14"
     inkscape:window-height="480"
     inkscape:window-width="746"
     inkscape:pageshadow="2"
     inkscape:pageopacity="0"
     guidetolerance="10"
     gridtolerance="10"
     objecttolerance="10"
     borderopacity="1"
     bordercolor="#666666"
     pagecolor="#ffffff" />
  <g
     style="opacity:1"
     id="g20">
    <path
       id="path22"
       d="m 4.51527,19.3039 c -0.4825,0.2475 -1.03,-0.1863 -0.9325,-0.74 L 4.62027,12.6514 0.21652,8.45639 c -0.41125,-0.3925 -0.1975001,-1.11 0.35375,-1.1875 l 6.1225,-0.87 2.73,-5.408753 c 0.24625,-0.4875 0.91253,-0.4875 1.15873,0 l 2.73,5.408753 6.1225,0.87 c 0.5513,0.0775 0.765,0.795 0.3538,1.1875 l -4.4038,4.19501 1.0375,5.9125 c 0.0975,0.5537 -0.45,0.9875 -0.9325,0.74 l -5.4887,-2.82 -5.48628,2.82 z"
       style="color:#000000;font-style:normal;font-variant:normal;font-weight:normal;font-stretch:normal;font-size:medium;line-height:normal;font-family:sans-serif;font-variant-ligatures:normal;font-variant-position:normal;font-variant-caps:normal;font-variant-numeric:normal;font-variant-alternates:normal;font-variant-east-asian:normal;font-feature-settings:normal;font-variation-settings:normal;text-indent:0;text-align:start;text-decoration:none;text-decoration-line:none;text-decoration-style:solid;text-decoration-color:#000000;letter-spacing:normal;word-spacing:normal;text-transform:none;writing-mode:lr-tb;direction:ltr;text-orientation:mixed;dominant-baseline:auto;baseline-shift:baseline;text-anchor:start;white-space:normal;shape-padding:0;shape-margin:0;inline-size:0;clip-rule:nonzero;display:inline;overflow:visible;visibility:visible;isolation:auto;mix-blend-mode:normal;color-interpolation:sRGB;color-interpolation-filters:linearRGB;solid-color:#000000;solid-opacity:1;vector-effect:none;fill:#062e64;fill-opacity:1;fill-rule:nonzero;stroke-width:1;stroke-linecap:butt;stroke-linejoin:miter;stroke-miterlimit:4;stroke-dasharray:none;stroke-dashoffset:0;stroke-opacity:1.0;color-rendering:auto;image-rendering:auto;shape-rendering:auto;text-rendering:auto;enable-background:accumulate;stop-color:#000000;stop-opacity:1;stroke:none;" />
    <path
       id="path24"
       d="M 10.001953 0.125 C 9.5957457 0.125 9.1815126 0.35988615 8.9765625 0.765625 L 6.3632812 5.9414062 L 0.5 6.7734375 C -0.4549142 6.9076885 -0.82291472 8.1559926 -0.12890625 8.8183594 L 4.0820312 12.828125 L 3.0898438 18.476562 C 3.0095061 18.932798 3.1998651 19.371874 3.5214844 19.626953 C 3.777325 19.829862 4.1487047 19.800508 4.4941406 19.722656 L 4.5136719 19.804688 L 4.515625 19.804688 L 4.4960938 19.722656 C 4.5835196 19.702778 4.6585503 19.790739 4.7421875 19.748047 L 4.7441406 19.748047 L 10 17.046875 L 15.259766 19.748047 L 15.261719 19.748047 C 15.676858 19.960994 16.162756 19.882032 16.484375 19.626953 C 16.805994 19.371874 16.9944 18.932798 16.914062 18.476562 L 15.921875 12.828125 L 20.132812 8.8183594 C 20.826749 8.1559806 20.458842 6.9076793 19.503906 6.7734375 L 13.640625 5.9414062 L 11.027344 0.765625 C 10.822425 0.35986609 10.408161 0.125 10.001953 0.125 z M 10.001953 1.125 C 10.051998 1.125 10.093484 1.1331027 10.134766 1.2148438 L 12.982422 6.8574219 L 19.363281 7.7636719 L 19.365234 7.7636719 C 19.512899 7.7844301 19.571823 7.9711288 19.443359 8.09375 L 14.845703 12.474609 L 15.929688 18.650391 C 15.94685 18.747855 15.909709 18.803426 15.861328 18.841797 C 15.812947 18.880168 15.784158 18.893928 15.716797 18.859375 L 10 15.921875 L 4.2871094 18.859375 C 4.2862124 18.859835 4.2860398 18.858932 4.2851562 18.859375 C 4.2196876 18.892233 4.1903145 18.879657 4.1425781 18.841797 C 4.0941974 18.803426 4.0570564 18.747855 4.0742188 18.650391 L 4.0761719 18.650391 L 5.1582031 12.474609 L 0.5625 8.09375 C 0.43400847 7.9711167 0.493039 7.7844209 0.640625 7.7636719 L 7.0214844 6.8574219 L 9.8691406 1.2148438 C 9.9104405 1.1330826 9.9519081 1.125 10.001953 1.125 z "
       style="color:#000000;font-style:normal;font-variant:normal;font-weight:normal;font-stretch:normal;font-size:medium;line-height:normal;font-family:sans-serif;font-variant-ligatures:normal;font-variant-position:normal;font-variant-caps:normal;font-variant-numeric:normal;font-variant-alternates:normal;font-variant-east-asian:normal;font-feature-settings:normal;font-variation-settings:normal;text-indent:0;text-align:start;text-decoration:none;text-decoration-line:none;text-decoration-style:solid;text-decoration-color:#000000;letter-spacing:normal;word-spacing:normal;text-transform:none;writing-mode:lr-tb;direction:ltr;text-orientation:mixed;dominant-baseline:auto;baseline-shift:baseline;text-anchor:start;white-space:normal;shape-padding:0;shape-margin:0;inline-size:0;clip-rule:nonzero;display:inline;overflow:visible;visibility:visible;isolation:auto;mix-blend-mode:normal;color-interpolation:sRGB;color-interpolation-filters:linearRGB;solid-color:#000000;solid-opacity:1;vector-effect:none;fill-opacity:1;fill-rule:nonzero;stroke-width:1;stroke-linecap:butt;stroke-linejoin:miter;stroke-miterlimit:4;stroke-dasharray:none;stroke-dashoffset:0;stroke-opacity:1.0;color-rendering:auto;image-rendering:auto;shape-rendering:auto;text-rendering:auto;enable-background:accumulate;stop-color:#000000;stop-opacity:1;stroke:none;" />
  </g>
</svg>
